<svg width="500" height="500" viewBox="0 0 500 500" fill="none" xmlns="http://www.w3.org/2000/svg">
<path fill-rule="evenodd" clip-rule="evenodd" d="M366.93 208.437C387.262 233.994 399.514 266.462 399.514 301.669C399.514 336.876 387.002 370.257 366.018 396.075L364.193 398.292L363.672 395.423C363.281 393.076 362.76 390.599 362.238 388.121C351.812 342.092 317.664 302.582 261.36 270.505C223.433 248.989 201.668 223.041 195.933 193.572C192.284 174.534 195.021 155.366 200.234 138.936C205.578 122.506 213.398 108.815 220.045 100.6L241.941 73.8688C245.72 69.1746 253.019 69.1746 256.799 73.8688L366.93 208.437ZM401.469 181.706L254.974 2.5427C252.237 -0.847568 246.893 -0.847568 244.156 2.5427L97.5313 181.706L97.01 182.358C70.1613 215.869 54 258.378 54 304.668C54 412.505 141.584 500 249.5 500C357.416 500 445 412.505 445 304.668C445 258.378 428.839 215.869 401.86 182.358L401.469 181.706ZM132.591 207.915L145.624 191.876L146.015 194.875C146.276 197.223 146.667 199.57 147.188 201.917C155.66 246.382 186.028 283.544 236.597 312.231C280.65 337.267 306.195 366.084 313.624 397.77C316.752 410.94 317.273 423.98 315.97 435.324L315.84 435.976L315.188 436.237C295.377 445.886 272.96 451.363 249.37 451.363C166.608 451.363 99.4863 384.34 99.4863 301.669C99.4863 266.202 111.868 233.472 132.591 207.915Z" fill="#4DA2FF"/>
</svg>
