<svg width="340" height="296" viewBox="0 0 340 296" fill="none" xmlns="http://www.w3.org/2000/svg">
<circle cx="169.5" cy="147.5" r="147.5" fill="#50AF95"/>
<path fill-rule="evenodd" clip-rule="evenodd" d="M191.08 167.57C189.88 167.66 183.68 168.03 169.85 168.03C158.85 168.03 151.04 167.7 148.3 167.57C105.79 165.7 74.06 158.3 74.06 149.44C74.06 140.58 105.79 133.19 148.3 131.29V160.2C151.08 160.4 159.04 160.87 170.04 160.87C183.24 160.87 189.85 160.32 191.04 160.21V131.31C233.46 133.2 265.12 140.6 265.12 149.44C265.12 158.28 233.47 165.68 191.04 167.56L191.08 167.57ZM191.08 128.32V102.45H250.28V63H89.1V102.45H148.29V128.31C100.18 130.52 64 140.05 64 151.47C64 162.89 100.18 172.41 148.29 174.63V257.53H191.07V174.6C239.07 172.39 275.19 162.87 275.19 151.46C275.19 140.05 239.1 130.53 191.07 128.31L191.08 128.32Z" fill="white"/>
</svg>
